<svg xmlns="http://www.w3.org/2000/svg" class="system-graphic" viewBox="0 0 1100 370" role="img" aria-labelledby="four-stakeholder-perspectives-title four-stakeholder-perspectives-desc"><title id="four-stakeholder-perspectives-title">Four Stakeholder Perspectives</title><desc id="four-stakeholder-perspectives-desc">Four stakeholder groups each considered all four scenarios. Selecting a group changes the highlighted connection and the priorities shown below.</desc><g font-family="Arial,Helvetica,sans-serif" fill="#123c43"><g data-group-graphic="inhouse"><path id="g-inhouse" d="M130 156V222Q130 257 550 282" fill="none" stroke="#007e80" stroke-opacity=".32" stroke-width="3"/><circle data-runner="g-inhouse" r="5" fill="#007e80" stroke="white" stroke-width="2"/><g transform="translate(130 113)"><path d="M-84.0 19 0-1 84.0 19v11L0 51l-84.0-21z" fill="#9fc9c9"/><path d="M-84.0 19 0-1 84.0 19 0 41z" fill="#e3efea"/><rect x="-28" y="-40" width="56" height="59" rx="13" fill="#007e80"/><g transform="translate(0 -11)" fill="none" stroke="white" stroke-width="2" stroke-linecap="round" stroke-linejoin="round"><path d="M0-16 13-10v12c0 8-13 15-13 15S-13 10-13 2v-12zM-6 0l4 5L7-6"/></g><text x="0" y="78" text-anchor="middle" font-size="17" font-weight="600" fill="#123c43">In-house legal</text></g></g><g data-group-graphic="lawfirms"><path id="g-lawfirms" d="M410 156V222Q410 257 550 282" fill="none" stroke="#1681a5" stroke-opacity=".32" stroke-width="3"/><circle data-runner="g-lawfirms" r="5" fill="#1681a5" stroke="white" stroke-width="2"/><g transform="translate(410 113)"><path d="M-84.0 19 0-1 84.0 19v11L0 51l-84.0-21z" fill="#9fc9c9"/><path d="M-84.0 19 0-1 84.0 19 0 41z" fill="#e3efea"/><rect x="-28" y="-40" width="56" height="59" rx="13" fill="#1681a5"/><g transform="translate(0 -11)" fill="none" stroke="white" stroke-width="2" stroke-linecap="round" stroke-linejoin="round"><path d="M0-17v31M-10 14h20M-15-7h30M-11-7-18 7h14zM11-7 4 7h14z"/></g><text x="0" y="78" text-anchor="middle" font-size="17" font-weight="600" fill="#123c43">Law firms</text></g></g><g data-group-graphic="legaltech"><path id="g-legaltech" d="M690 156V222Q690 257 550 282" fill="none" stroke="#b48816" stroke-opacity=".32" stroke-width="3"/><circle data-runner="g-legaltech" r="5" fill="#b48816" stroke="white" stroke-width="2"/><g transform="translate(690 113)"><path d="M-84.0 19 0-1 84.0 19v11L0 51l-84.0-21z" fill="#9fc9c9"/><path d="M-84.0 19 0-1 84.0 19 0 41z" fill="#e3efea"/><rect x="-28" y="-40" width="56" height="59" rx="13" fill="#b48816"/><g transform="translate(0 -11)" fill="none" stroke="white" stroke-width="2" stroke-linecap="round" stroke-linejoin="round"><rect x="-14" y="-14" width="10" height="10" rx="2"/><rect x="4" y="-14" width="10" height="10" rx="2"/><rect x="-14" y="4" width="10" height="10" rx="2"/><rect x="4" y="4" width="10" height="10" rx="2"/><path d="M-4-9h8M-9-4v8M9-4v8M-4 9h8"/></g><text x="0" y="78" text-anchor="middle" font-size="17" font-weight="600" fill="#123c43">Legal technology</text></g></g><g data-group-graphic="people"><path id="g-people" d="M970 156V222Q970 257 550 282" fill="none" stroke="#c55123" stroke-opacity=".32" stroke-width="3"/><circle data-runner="g-people" r="5" fill="#c55123" stroke="white" stroke-width="2"/><g transform="translate(970 113)"><path d="M-84.0 19 0-1 84.0 19v11L0 51l-84.0-21z" fill="#9fc9c9"/><path d="M-84.0 19 0-1 84.0 19 0 41z" fill="#e3efea"/><rect x="-28" y="-40" width="56" height="59" rx="13" fill="#c55123"/><g transform="translate(0 -11)" fill="none" stroke="white" stroke-width="2" stroke-linecap="round" stroke-linejoin="round"><circle cy="-8" r="6"/><path d="M-13 14v-4a13 13 0 0 1 26 0v4"/></g><text x="0" y="78" text-anchor="middle" font-size="17" font-weight="600" fill="#123c43">People &amp; small firms</text></g></g><rect x="410" y="257" width="280" height="65" rx="22" fill="#123c43"/><rect x="440" y="272" width="20" height="20" rx="6" fill="#42b8af"/><rect x="469" y="272" width="20" height="20" rx="6" fill="#53afcc"/><rect x="498" y="272" width="20" height="20" rx="6" fill="#edbc32"/><rect x="527" y="272" width="20" height="20" rx="6" fill="#f6925e"/><text x="610" y="291" text-anchor="middle" font-size="17" font-weight="600" fill="white">All four worlds</text><text x="550" y="32" text-anchor="middle" font-size="16" font-weight="700" fill="#123c43">A SHARED SET OF FUTURES. DIFFERENT RESPONSIBILITIES.</text></g></svg>